<svg xmlns="http://www.w3.org/2000/svg" viewBox="0 0 1920 1080" width="1920" height="1080">
  <defs>
    <linearGradient id="bgGrad" x1="0%" y1="0%" x2="100%" y2="100%">
      <stop offset="0%" stop-color="#09090b" />
      <stop offset="50%" stop-color="#0f1117" />
      <stop offset="100%" stop-color="#09090b" />
    </linearGradient>
    <linearGradient id="accentCyan" x1="0%" y1="0%" x2="100%" y2="100%">
      <stop offset="0%" stop-color="#38bdf8" />
      <stop offset="100%" stop-color="#6366f1" />
    </linearGradient>
    <linearGradient id="accentGreen" x1="0%" y1="0%" x2="100%" y2="100%">
      <stop offset="0%" stop-color="#34d399" />
      <stop offset="100%" stop-color="#06b6d4" />
    </linearGradient>
    <filter id="shadow" x="-10%" y="-10%" width="120%" height="120%">
      <feDropShadow dx="0" dy="12" stdDeviation="16" flood-color="#000000" flood-opacity="0.65" />
    </filter>
  </defs>

  <!-- Arka Plan -->
  <rect width="1920" height="1080" fill="url(#bgGrad)" />

  <!-- Izgara Deseni (Subtle Grid) -->
  <g opacity="0.04" stroke="#ffffff" stroke-width="1">
    <pattern id="grid" width="40" height="40" patternUnits="userSpaceOnUse">
      <path d="M 40 0 L 0 0 0 40" fill="none" />
    </pattern>
    <rect width="1920" height="1080" fill="url(#grid)" />
  </g>

  <!-- Dekoratif Isik Halesi -->
  <circle cx="960" cy="180" r="450" fill="#38bdf8" opacity="0.07" filter="blur(80px)" />
  <circle cx="1500" cy="700" r="350" fill="#6366f1" opacity="0.05" filter="blur(80px)" />

  <!-- Ust Baslik Alani -->
  <g transform="translate(960, 110)">
    <!-- Ust Rozet -->
    <rect x="-240" y="-35" width="480" height="36" rx="18" fill="#18181b" stroke="#27272a" stroke-width="1.5" />
    <circle cx="-215" cy="-17" r="4.5" fill="#38bdf8" />
    <text x="-195" y="-12" fill="#a1a1aa" font-family="JetBrainsMono Nerd Font, JetBrains Mono, monospace" font-size="13" font-weight="600" letter-spacing="2">// EVRENSEL PDF &amp; KİTAP ÇEVİRİ MOTORU</text>

    <!-- Ana Baslik -->
    <text x="0" y="55" text-anchor="middle" fill="#ffffff" font-family="JetBrainsMono Nerd Font, JetBrains Mono, monospace" font-size="64" font-weight="800" letter-spacing="-1">POLYCODEX</text>

    <!-- Alt Slogan -->
    <text x="0" y="105" text-anchor="middle" fill="#94a3b8" font-family="JetBrainsMono Nerd Font, JetBrains Mono, monospace" font-size="20" font-weight="400" letter-spacing="0.5">1:1 Mizanpaj ve Görsel Dokunulmazlığı Sunan, 5000+ Sayfa Kapasiteli Açık Kaynak Çevirici</text>

    <!-- Etiketler -->
    <g transform="translate(0, 145)" font-family="JetBrainsMono Nerd Font, JetBrains Mono, monospace" font-size="13" font-weight="600">
      <!-- Tag 1 -->
      <rect x="-380" y="0" width="165" height="32" rx="8" fill="#18181b" stroke="#334155" />
      <text x="-297" y="21" text-anchor="middle" fill="#38bdf8">RUST &amp; QML CORE</text>

      <!-- Tag 2 -->
      <rect x="-195" y="0" width="185" height="32" rx="8" fill="#18181b" stroke="#334155" />
      <text x="-102" y="21" text-anchor="middle" fill="#34d399">5000+ SAYFA AKIŞI</text>

      <!-- Tag 3 -->
      <rect x="10" y="0" width="180" height="32" rx="8" fill="#18181b" stroke="#334155" />
      <text x="100" y="21" text-anchor="middle" fill="#818cf8">YEREL OLLAMA AI</text>

      <!-- Tag 4 -->
      <rect x="210" y="0" width="170" height="32" rx="8" fill="#18181b" stroke="#334155" />
      <text x="295" y="21" text-anchor="middle" fill="#f43f5e">Tz MİKROTİPOGRAFİ</text>
    </g>
  </g>

  <!-- Mizanpaj Karsilastirma Paneli (Sol: Orijinal Belge / Sag: Cevrilmis Belge) -->
  <g transform="translate(160, 360)">
    <!-- Ana Cerceve / Pencere -->
    <rect width="1600" height="640" rx="20" fill="#121215" stroke="#27272a" stroke-width="2" filter="url(#shadow)" />

    <!-- Pencere Baslik Cubugu -->
    <rect width="1600" height="50" rx="20" fill="#18181b" />
    <rect y="30" width="1600" height="20" fill="#18181b" />
    <line x1="0" y1="50" x2="1600" y2="50" stroke="#27272a" stroke-width="1.5" />

    <!-- Pencere Butonlari -->
    <circle cx="35" cy="25" r="6" fill="#ef4444" />
    <circle cx="55" cy="25" r="6" fill="#f59e0b" />
    <circle cx="75" cy="25" r="6" fill="#10b981" />
    <text x="110" y="29" fill="#71717a" font-family="JetBrainsMono Nerd Font, JetBrains Mono, monospace" font-size="13">polycodex-gui --book "Advanced Quantum Mechanics.pdf" (Page 412 / 5,120)</text>
    <text x="1500" y="29" fill="#38bdf8" font-family="JetBrainsMono Nerd Font, JetBrains Mono, monospace" font-size="12" font-weight="600">[SINGLE-INSTANCE LOCK ACTIVE]</text>

    <!-- SOL PANEL: Orijinal Belge (EN) -->
    <g transform="translate(50, 80)">
      <!-- Panel Cercevesi -->
      <rect width="700" height="510" rx="12" fill="#09090b" stroke="#27272a" stroke-width="1.5" />
      <rect width="700" height="40" rx="12" fill="#18181b" />
      <rect y="24" width="700" height="16" fill="#18181b" />
      <line x1="0" y1="40" x2="700" y2="40" stroke="#27272a" stroke-width="1" />
      <text x="25" y="25" fill="#a1a1aa" font-family="JetBrainsMono Nerd Font, JetBrains Mono, monospace" font-size="13" font-weight="600">KAYNAK MİZANPAJ [EN] - DOKUNULMAZ ORİJİNAL</text>

      <!-- Belge Icerigi (Mizanpaj) -->
      <!-- Baslik -->
      <rect x="40" y="65" width="340" height="18" rx="4" fill="#38bdf8" opacity="0.85" />
      <!-- Paragraf 1 -->
      <rect x="40" y="100" width="620" height="8" rx="2" fill="#475569" />
      <rect x="40" y="118" width="590" height="8" rx="2" fill="#475569" />
      <rect x="40" y="136" width="610" height="8" rx="2" fill="#475569" />
      <rect x="40" y="154" width="480" height="8" rx="2" fill="#475569" />

      <!-- Gorsel / Sema Alani (Dokunulmaz) -->
      <rect x="40" y="185" width="280" height="170" rx="8" fill="#1e293b" stroke="#334155" stroke-dasharray="4 4" />
      <rect x="60" y="205" width="240" height="100" rx="4" fill="#0f172a" stroke="#475569" />
      <circle cx="180" cy="255" r="28" fill="#38bdf8" opacity="0.25" stroke="#38bdf8" stroke-width="1.5" />
      <path d="M 120 255 L 240 255" stroke="#38bdf8" stroke-width="1.5" stroke-linecap="round" />
      <text x="180" y="330" text-anchor="middle" fill="#64748b" font-family="JetBrainsMono Nerd Font, JetBrains Mono, monospace" font-size="11">FIG 14.2: Vector Wave Equation</text>

      <!-- Yan Sutun / Tablo -->
      <rect x="350" y="185" width="310" height="170" rx="8" fill="#18181b" stroke="#334155" />
      <line x1="350" y1="220" x2="660" y2="220" stroke="#27272a" />
      <rect x="365" y="198" width="120" height="10" rx="2" fill="#64748b" />
      <rect x="520" y="198" width="100" height="10" rx="2" fill="#64748b" />
      <rect x="365" y="235" width="130" height="8" rx="2" fill="#475569" />
      <rect x="520" y="235" width="110" height="8" rx="2" fill="#475569" />
      <rect x="365" y="255" width="140" height="8" rx="2" fill="#475569" />
      <rect x="520" y="255" width="100" height="8" rx="2" fill="#475569" />
      <rect x="365" y="275" width="120" height="8" rx="2" fill="#475569" />
      <rect x="520" y="275" width="115" height="8" rx="2" fill="#475569" />
      <rect x="365" y="295" width="135" height="8" rx="2" fill="#475569" />
      <rect x="520" y="295" width="90" height="8" rx="2" fill="#475569" />

      <!-- Alt Paragraf -->
      <rect x="40" y="380" width="620" height="8" rx="2" fill="#475569" />
      <rect x="40" y="398" width="600" height="8" rx="2" fill="#475569" />
      <rect x="40" y="416" width="560" height="8" rx="2" fill="#475569" />
      <rect x="40" y="434" width="410" height="8" rx="2" fill="#475569" />

      <!-- Durum Bilgisi -->
      <text x="40" y="480" fill="#64748b" font-family="JetBrainsMono Nerd Font, JetBrains Mono, monospace" font-size="12">Boyut: 595.28 x 841.89 pt | Orijinal Nesne Sayisi: 48 (Do, re, BT/ET)</text>
    </g>

    <!-- ORTA GECIS OKU / KODEKS KILIDI -->
    <g transform="translate(770, 290)">
      <circle cx="30" cy="30" r="28" fill="#18181b" stroke="#38bdf8" stroke-width="2" />
      <path d="M 22 30 L 38 30 M 32 24 L 38 30 L 32 36" stroke="#38bdf8" stroke-width="2.5" stroke-linecap="round" stroke-linejoin="round" />
      <text x="30" y="78" text-anchor="middle" fill="#38bdf8" font-family="JetBrainsMono Nerd Font, JetBrains Mono, monospace" font-size="11" font-weight="700">1:1 KORUMA</text>
      <text x="30" y="94" text-anchor="middle" fill="#34d399" font-family="JetBrainsMono Nerd Font, JetBrains Mono, monospace" font-size="10">Tz SIKISTIRMA</text>
    </g>

    <!-- SAG PANEL: Hedef Belge (TR) -->
    <g transform="translate(850, 80)">
      <!-- Panel Cercevesi -->
      <rect width="700" height="510" rx="12" fill="#09090b" stroke="#38bdf8" stroke-width="1.5" />
      <rect width="700" height="40" rx="12" fill="#18181b" />
      <rect y="24" width="700" height="16" fill="#18181b" />
      <line x1="0" y1="40" x2="700" y2="40" stroke="#27272a" stroke-width="1" />
      <text x="25" y="25" fill="#38bdf8" font-family="JetBrainsMono Nerd Font, JetBrains Mono, monospace" font-size="13" font-weight="700">HEDEF MİZANPAJ [TR] - 1:1 REKONSTRÜKSİYON</text>

      <!-- Belge Icerigi (Mizanpaj) -->
      <!-- Baslik -->
      <rect x="40" y="65" width="420" height="18" rx="4" fill="#34d399" opacity="0.9" />
      <!-- Paragraf 1 (Turkce %28 daha uzun, Tz ile milimetrik sigdirildi) -->
      <rect x="40" y="100" width="620" height="8" rx="2" fill="#94a3b8" />
      <rect x="40" y="118" width="615" height="8" rx="2" fill="#94a3b8" />
      <rect x="40" y="136" width="620" height="8" rx="2" fill="#94a3b8" />
      <rect x="40" y="154" width="530" height="8" rx="2" fill="#94a3b8" />

      <!-- Gorsel / Sema Alani (1-1 Piksel Korunmus) -->
      <rect x="40" y="185" width="280" height="170" rx="8" fill="#1e293b" stroke="#34d399" stroke-width="1.5" />
      <rect x="60" y="205" width="240" height="100" rx="4" fill="#0f172a" stroke="#475569" />
      <circle cx="180" cy="255" r="28" fill="#34d399" opacity="0.25" stroke="#34d399" stroke-width="1.5" />
      <path d="M 120 255 L 240 255" stroke="#34d399" stroke-width="1.5" stroke-linecap="round" />
      <text x="180" y="330" text-anchor="middle" fill="#34d399" font-family="JetBrainsMono Nerd Font, JetBrains Mono, monospace" font-size="11">ŞEKİL 14.2: Vektör Dalga Denklemi</text>

      <!-- Yan Sutun / Tablo (1-1 Konum Korunmus) -->
      <rect x="350" y="185" width="310" height="170" rx="8" fill="#18181b" stroke="#34d399" stroke-width="1.5" />
      <line x1="350" y1="220" x2="660" y2="220" stroke="#27272a" />
      <rect x="365" y="198" width="140" height="10" rx="2" fill="#34d399" opacity="0.8" />
      <rect x="520" y="198" width="120" height="10" rx="2" fill="#34d399" opacity="0.8" />
      <rect x="365" y="235" width="145" height="8" rx="2" fill="#94a3b8" />
      <rect x="520" y="235" width="125" height="8" rx="2" fill="#94a3b8" />
      <rect x="365" y="255" width="150" height="8" rx="2" fill="#94a3b8" />
      <rect x="520" y="255" width="115" height="8" rx="2" fill="#94a3b8" />
      <rect x="365" y="275" width="140" height="8" rx="2" fill="#94a3b8" />
      <rect x="520" y="275" width="120" height="8" rx="2" fill="#94a3b8" />
      <rect x="365" y="295" width="145" height="8" rx="2" fill="#94a3b8" />
      <rect x="520" y="295" width="105" height="8" rx="2" fill="#94a3b8" />

      <!-- Alt Paragraf -->
      <rect x="40" y="380" width="620" height="8" rx="2" fill="#94a3b8" />
      <rect x="40" y="398" width="620" height="8" rx="2" fill="#94a3b8" />
      <rect x="40" y="416" width="590" height="8" rx="2" fill="#94a3b8" />
      <rect x="40" y="434" width="460" height="8" rx="2" fill="#94a3b8" />

      <!-- Durum Bilgisi -->
      <text x="40" y="480" fill="#34d399" font-family="JetBrainsMono Nerd Font, JetBrains Mono, monospace" font-size="12">Tüm Görsel/Tablo Koordinatları Korundu (Delta = 0.00 pt) | Tz Factor: 91.4%</text>
    </g>
  </g>

  <!-- Alt Bilgi / Mimari Bar -->
  <g transform="translate(160, 1025)" font-family="JetBrainsMono Nerd Font, JetBrains Mono, monospace" font-size="12" fill="#71717a">
    <text x="0" y="15">MİMARİ: Rust 2024 / lopdf / Quickshell Wayland Engine / Ollama LLM / IPC Interface</text>
    <text x="1600" y="15" text-anchor="end" fill="#a1a1aa">GÜVENLİK: 0600 File Permissions / Non-root / DoS Protected (2 GiB Ceiling)</text>
  </g>
</svg>
